<mxfile host="app.diagrams.net" modified="2023-09-16T23:19:00.573Z" agent="Mozilla/5.0 (Windows NT 10.0; Win64; x64) AppleWebKit/537.36 (KHTML, like Gecko) Chrome/116.0.0.0 Safari/537.36" version="21.7.5" etag="gTRK5Gn9yLuTgMM-11jw" type="github">
  <diagram name="第 1 页" id="W6Fj_rsfh2s28kM5z5f6">
    <mxGraphModel>
      <root>
        <mxCell id="0" />
        <mxCell id="1" parent="0" />
      </root>
    </mxGraphModel>
  </diagram>
</mxfile>
